<?xml version="1.0" encoding="UTF-8" standalone="no"?>
<svg id="svg4230" xmlns:rdf="http://www.w3.org/1999/02/22-rdf-syntax-ns#" xmlns="http://www.w3.org/2000/svg" height="364" width="301" version="1.1" xmlns:cc="http://creativecommons.org/ns#" xmlns:xlink="http://www.w3.org/1999/xlink" xmlns:dc="http://purl.org/dc/elements/1.1/">
 <title id="title4819">BNN Beaver</title>
 <defs id="defs4232">
  <linearGradient id="imagebot_41" y2="382.75" gradientUnits="userSpaceOnUse" x2="190.56" gradientTransform="matrix(1.2269 0 0 .81504 22 -7)" y1="260.79" x1="68.606">
   <stop id="stop4235" stop-color="#fbe9ba" offset="0"/>
   <stop id="stop4237" stop-color="#fbcd4d" offset=".5"/>
   <stop id="stop4239" stop-color="#fbdf93" offset="1"/>
  </linearGradient>
  <linearGradient id="linearGradient4588" y2="289.29" gradientUnits="userSpaceOnUse" x2="178.72" y1="265.32" x1="178.72">
   <stop id="stop4584" style="stop-color:#22870a" offset="0"/>
   <stop id="stop4592" style="stop-color:#22870a;stop-opacity:.74902" offset=".26899"/>
   <stop id="stop4590" style="stop-color:#22870a;stop-opacity:.49804" offset=".44304"/>
   <stop id="stop4594" style="stop-color:#22870a;stop-opacity:.24706" offset=".64873"/>
   <stop id="stop4586" style="stop-color:#22870a;stop-opacity:0" offset="1"/>
  </linearGradient>
 </defs>
 <metadata id="metadata4282">image/svg+xmlOpenclipartCartoon beaver2006-12-26T00:00:00https://openclipart.org/detail/17814/-by--17814lemmling
  <rdf:RDF>
   <cc:Work rdf:about="">
    <dc:format>image/svg+xml</dc:format>
    <dc:type rdf:resource="http://purl.org/dc/dcmitype/StillImage"/>
    <dc:title>BNN Beaver</dc:title>
    <cc:license rdf:resource="http://creativecommons.org/publicdomain/zero/1.0/"/>
    <dc:description>Beaver Network News</dc:description>
    <dc:creator>
     <cc:Agent>
      <dc:title/>
     </cc:Agent>
    </dc:creator>
    <dc:publisher>
     <cc:Agent>
      <dc:title>Openclipart.org</dc:title>
     </cc:Agent>
    </dc:publisher>
    <dc:identifier>https://openclipart.org/</dc:identifier>
    <dc:source/>
    <dc:contributor>
     <cc:Agent>
      <dc:title>techycolbert (https://openclipart.org/user-detail/techycolbert)</dc:title>
     </cc:Agent>
    </dc:contributor>
   </cc:Work>
   <cc:License rdf:about="http://creativecommons.org/publicdomain/zero/1.0/">
    <cc:permits rdf:resource="http://creativecommons.org/ns#Reproduction"/>
    <cc:permits rdf:resource="http://creativecommons.org/ns#Distribution"/>
    <cc:permits rdf:resource="http://creativecommons.org/ns#DerivativeWorks"/>
   </cc:License>
  </rdf:RDF>
 </metadata>
 <g id="g4639">
  <g id="g4600">
   <path id="imagebot_36" d="m116.91 226.61s-212.64-169.77-59.4-218.49c153.44-48.79 93.34 210.01 93.34 210.01l-33.94 8.48z" style="stroke-linejoin:round;fill-rule:evenodd;stroke:#000000;stroke-width:4;fill:#502d16"/>
   <path id="imagebot_35" d="m298.73 234.64a121.5 121.5 0 0 1 -243 0 121.5 121.5 0 1 1 243 0z" style="stroke-linejoin:round;stroke:#000000;stroke-width:4;stroke-linecap:round;fill:#784421"/>
   <path id="imagebot_34" d="m177.22 113.15c-24.51 0-47.32 7.25-66.41 19.75 8.54 30.08 35.95 52.24 68.63 52.81 1.08 1.85 2.11 3.32 2.75 3.78 2.01 1.45 12.86 2.01 14.87 0.34 0.99-0.81 2.79-3.71 4.25-7.03 22.48-6.64 40.43-23.88 48.1-45.9-20.19-14.94-45.17-23.75-72.19-23.75z" style="fill-opacity:.31373;fill:#000000"/>
   <path id="imagebot_32" d="m177.23 113.15c-12.93 0-25.38 2.04-37.07 5.78 10.52-2.46 21.61-3.78 33.07-3.78 31.43 0 60.1 9.88 81.68 26.09-21.06-17.54-48.15-28.09-77.68-28.09zm115.06 82.37c1.59 6.49 2.44 13.19 2.44 20.07 0 55.44-54.44 100.43-121.5 100.43-56.09 0-103.31-31.46-117.28-74.18 3.72 63.72 56.62 114.31 121.28 114.31 67.06 0 121.5-54.43 121.5-121.5 0-13.68-2.26-26.85-6.44-39.13z" style="fill-opacity:.31373;fill:#000000"/>
   <path id="imagebot_31" d="m124.56 31.818c-11.055 0-20.031 8.976-20.031 20.031 0 7.155 3.758 13.426 9.407 16.969-5.972 10.554-9.407 22.735-9.407 35.719 0 40.136 32.549 72.716 72.689 72.716 40.13 0 72.72-32.58 72.72-72.716 0-12.984-3.44-25.165-9.41-35.719 5.64-3.545 9.41-9.824 9.41-16.969 0-11.055-8.98-20.031-20.03-20.031-7.15 0-13.4 3.771-16.94 9.406-10.56-5.979-22.76-9.406-35.75-9.406s-25.16 3.43-35.72 9.406c-3.55-5.635-9.79-9.406-16.938-9.406z" style="stroke-linejoin:round;stroke:#000000;stroke-width:4;stroke-linecap:round;fill:#784421"/>
   <path id="imagebot_30" d="m236.1 286.9c-30.4 0-55.09 24.69-55.09 55.09 0 6.29 1.06 12.31 3 17.94h104.15c1.95-5.63 3-11.65 3-17.94 0-30.4-24.65-55.09-55.06-55.09z" style="stroke-linejoin:round;stroke:#000000;stroke-width:4;stroke-linecap:round;fill:#784421"/>
   <path id="imagebot_29" d="m125.91 286.9c-30.4 0-55.06 24.69-55.06 55.09 0 6.29 1.06 12.31 3 17.94h104.16c1.94-5.63 3-11.65 3-17.94 0-30.4-24.69-55.09-55.1-55.09z" style="stroke-linejoin:round;stroke:#000000;stroke-width:4;stroke-linecap:round;fill:#784421"/>
   <path id="imagebot_28" d="m175.36 90.187a20.464 20.464 0 1 1 -40.929 0 20.464 20.464 0 1 1 40.929 0z" style="stroke-linejoin:round;stroke:#000000;stroke-width:4.0002;stroke-linecap:round;fill:#ffffff"/>
   <path id="imagebot_27" d="m220.69 90.187a20.464 20.464 0 1 1 -40.929 0 20.464 20.464 0 1 1 40.929 0z" style="stroke-linejoin:round;stroke:#000000;stroke-width:4.0002;stroke-linecap:round;fill:#ffffff"/>
   <path id="imagebot_26" d="m201.86 94.103a6.61 6.61 0 0 1 -13.22 0 6.61 6.61 0 1 1 13.22 0z" style="fill:#000000"/>
   <path id="imagebot_25" d="m158.81 132.19c4.14-6.99 29.55-7.32 34.87-0.48 5.04 6.51-7.58 25.02-17.44 24.26-9.82-0.75-21.66-16.65-17.43-23.78z" style="fill-rule:evenodd;fill:#000000"/>
   <path id="imagebot_24" d="m121.04 344.04a14.75 17.5 0 0 1 -29.5 0 14.75 17.5 0 1 1 29.5 0z" style="stroke-linejoin:round;stroke:#000000;stroke-width:3.6723;stroke-linecap:round;fill:#502d16"/>
   <path id="imagebot_23" d="m158.04 344.04a14.75 17.5 0 0 1 -29.5 0 14.75 17.5 0 1 1 29.5 0z" style="stroke-linejoin:round;stroke:#000000;stroke-width:3.6723;stroke-linecap:round;fill:#502d16"/>
   <path id="imagebot_22" d="m140.54 344.04a14.75 17.5 0 0 1 -29.5 0 14.75 17.5 0 1 1 29.5 0z" style="stroke-linejoin:round;stroke:#000000;stroke-width:3.6723;stroke-linecap:round;fill:#502d16"/>
   <path id="imagebot_21" d="m234.54 344.04a14.75 17.5 0 0 1 -29.5 0 14.75 17.5 0 1 1 29.5 0z" style="stroke-linejoin:round;stroke:#000000;stroke-width:3.6723;stroke-linecap:round;fill:#502d16"/>
   <path id="imagebot_20" d="m271.54 344.04a14.75 17.5 0 0 1 -29.5 0 14.75 17.5 0 1 1 29.5 0z" style="stroke-linejoin:round;stroke:#000000;stroke-width:3.6723;stroke-linecap:round;fill:#502d16"/>
   <path id="imagebot_19" d="m254.04 344.04a14.75 17.5 0 0 1 -29.5 0 14.75 17.5 0 1 1 29.5 0z" style="stroke-linejoin:round;stroke:#000000;stroke-width:3.6723;stroke-linecap:round;fill:#502d16"/>
   <path id="imagebot_9" d="m230.15 40.323c-4.02 0-7.53 2.11-9.53 5.28 6.15 4.13 11.44 9.42 15.57 15.56 3.15-2 5.26-5.54 5.26-9.55 0-6.23-5.07-11.29-11.3-11.29z" style="stroke-linejoin:round;stroke:#000000;stroke-width:4;stroke-linecap:round;fill:#502d16"/>
   <path id="imagebot_8" d="m167.44 94.103a6.61 6.61 0 0 1 -13.22 0 6.61 6.61 0 1 1 13.22 0z" style="fill:#000000"/>
   <path id="imagebot_7" d="m124.52 40.323c4.01 0 7.52 2.11 9.52 5.28-6.14 4.13-11.43 9.42-15.57 15.56-3.15-2-5.25-5.54-5.25-9.55 0-6.23 5.06-11.29 11.3-11.29z" style="stroke-linejoin:round;stroke:#000000;stroke-width:4;stroke-linecap:round;fill:#502d16"/>
   <path id="imagebot_6" d="m244.81 77.755c0.74 4.152 1.13 8.418 1.13 12.782 0 40.136-32.59 72.716-72.72 72.716-30.64 0-56.84-19-67.532-45.84 6.082 34 35.792 59.84 71.532 59.84 40.13 0 72.72-32.58 72.72-72.716 0-9.463-1.83-18.491-5.13-26.782z" style="fill-opacity:.31373;fill:#000000"/>
   <path id="imagebot_5" d="m238.69 102.92c10.87-5 37.02 12.72 35.95 17.96-15.52-5.5-23.21-5.51-31.69-2.08 9.29 3.86 19.46 12.9 20.05 22.22-6.45-5.43-18.31-10.54-30.42-8.29 6.08 7.18 14.31 13.78 12.09 23.19-7.52-7.97-14.93-9.06-22.35-11.04" style="stroke-linejoin:round;fill-rule:evenodd;stroke:#000000;stroke-linecap:round;stroke-width:4;fill:#784421"/>
   <path id="imagebot_4" d="m116.07 102.92c-10.87-5-37.02 12.72-35.95 17.96 15.52-5.5 23.21-5.51 31.69-2.08-9.29 3.86-19.46 12.9-20.05 22.22 6.45-5.43 18.31-10.54 30.42-8.29-6.08 7.18-14.31 13.78-12.09 23.19 7.52-7.97 14.92-9.06 22.34-11.04" style="stroke-linejoin:round;fill-rule:evenodd;stroke:#000000;stroke-linecap:round;stroke-width:4;fill:#784421"/>
   <path id="imagebot_3" d="m166.16 163.24c6.53 2.23 16.23 2 21.22 0.01 5.12-2.05-2.05 15.86-4.25 17.67-2.01 1.66-11.42 1.45-13.43 0-2.17-1.56-9.64-19.76-3.54-17.68z" style="stroke-linejoin:round;fill-rule:evenodd;stroke:#000000;stroke-width:4;fill:#ffffff"/>
   <path id="imagebot_39" d="m126 291.4v-78.324c0-3.3275 4.1031-6.0249 9.1646-6.0249h109.97c5.0614 0 9.1646 2.6974 9.1646 6.0249s-4.1031 6.0249-9.1646 6.0249h-9.1646v78.324c0 3.3275-4.1031 6.0249-9.1646 6.0249h-109.97c-5.0614 0-9.1646-2.6975-9.1646-6.0249 0-3.3275 4.1031-6.0249 9.1646-6.0249h9.1646zm18.329-84.349c5.0614 0 9.1646 2.6974 9.1646 6.0249s-4.1031 6.0249-9.1646 6.0249c-2.5307 0-4.5823-1.3487-4.5823-3.0125 0-1.6637 2.0516-3.0125 4.5823-3.0125h9.1646m91.646 6.0249h-100.81m-18.329 72.299c2.5307 0 4.5823 1.3487 4.5823 3.0125 0 1.6637-2.0516 3.0125-4.5823 3.0125h9.1646m-9.1646 6.0249c5.0614 0 9.1646-2.6975 9.1646-6.0249v-6.0249" style="stroke-linejoin:round;stroke:#000000;stroke-linecap:round;stroke-width:3;fill:url(#imagebot_41)" stroke-opacity="null"/>
   <g id="imagebot_44" transform="translate(-120 44.743)">
    <path id="imagebot_18" d="m440.04 422.84a49.105 49.105 0 1 1 -98.21 0 49.105 49.105 0 1 1 98.21 0z" style="fill-opacity:.31373;fill:#000000" transform="matrix(.452 .12111 -.12111 .452 241.09 -68.307)"/>
    <path id="imagebot_16" d="m440.04 422.84a49.105 49.105 0 1 1 -98.21 0 49.105 49.105 0 1 1 98.21 0z" style="stroke-linejoin:round;stroke:#000000;stroke-width:8.5479;stroke-linecap:round;fill:#784421" transform="matrix(.33089 .33089 -.33089 .33089 371.08 -104.22)"/>
    <path id="imagebot_12" d="m354 671.86a17.5 17.5 0 1 1 -35 0 17.5 17.5 0 1 1 35 0z" style="stroke-linejoin:round;stroke:#000000;stroke-width:7.6177;stroke-linecap:round;fill:#502d16" transform="matrix(-.39134 -.22594 -.25714 .44538 664.46 -44.567)"/>
    <path id="imagebot_11" d="m354 671.86a17.5 17.5 0 1 1 -35 0 17.5 17.5 0 1 1 35 0z" style="stroke-linejoin:round;stroke:#000000;stroke-width:7.6177;stroke-linecap:round;fill:#502d16" transform="matrix(-.39134 -.22594 -.25714 .44538 650.28 -56.487)"/>
    <path id="imagebot_10" d="m354 671.86a17.5 17.5 0 1 1 -35 0 17.5 17.5 0 1 1 35 0z" style="stroke-linejoin:round;stroke:#000000;stroke-width:7.6177;stroke-linecap:round;fill:#502d16" transform="matrix(-.39134 -.22594 -.25714 .44538 653.41 -47.297)"/>
   </g>
   <g id="imagebot_51" transform="translate(187 107.51)">
    <path id="imagebot_33" d="m440.04 422.84a49.105 49.105 0 1 1 -98.21 0 49.105 49.105 0 1 1 98.21 0z" style="fill-opacity:.31373;fill:#000000" transform="matrix(.46795 -6.2367e-8 6.2367e-8 .46795 -251.04 -88.827)"/>
    <path id="imagebot_17" d="m440.04 422.84a49.105 49.105 0 1 1 -98.21 0 49.105 49.105 0 1 1 98.21 0z" style="stroke-linejoin:round;stroke:#000000;stroke-width:8.5479;stroke-linecap:round;fill:#784421" transform="matrix(.40526 -.23397 .23397 .40526 -319.26 22.773)"/>
    <path id="imagebot_15" d="m354 671.86a17.5 17.5 0 1 1 -35 0 17.5 17.5 0 1 1 35 0z" style="stroke-linejoin:round;stroke:#000000;stroke-width:7.6177;stroke-linecap:round;fill:#502d16" transform="matrix(.39134 -.22594 .25714 .44538 -363.69 -107.48)"/>
    <path id="imagebot_14" d="m354 671.86a17.5 17.5 0 1 1 -35 0 17.5 17.5 0 1 1 35 0z" style="stroke-linejoin:round;stroke:#000000;stroke-width:7.6177;stroke-linecap:round;fill:#502d16" transform="matrix(.39134 -.22594 .25714 .44538 -349.51 -121.39)"/>
    <path id="imagebot_13" d="m354 671.86a17.5 17.5 0 1 1 -35 0 17.5 17.5 0 1 1 35 0z" style="stroke-linejoin:round;stroke:#000000;stroke-width:7.6177;stroke-linecap:round;fill:#502d16" transform="matrix(.39134 -.22594 .25714 .44538 -352.64 -110.2)"/>
   </g>
  </g>
  <g id="g4596" transform="matrix(1 0 0 .9 0 24.933)">
   <path id="path4403" style="fill:#22870a;fill-rule:evenodd" d="m171.11 240.98c-1.595 0-2.7116 0.0456-3.3496 0.13671-1.8799 0.28483-2.8203 0.97461-2.8203 2.0684 0 0.3418 0.0973 0.63184 0.29101 0.8711 0.20508 0.23926 0.56347 0.48373 1.0762 0.73437 0.44434 0.21648 0.76335 0.44434 0.95704 0.6836 0.19368 0.23925 0.35319 0.60383 0.47851 1.0938 0.3418 1.3444 0.51367 3.4863 0.51367 6.4258 0 2.7572-0.0973 4.8701-0.29101 6.3398-0.11394 0.80892-0.43913 1.3744-0.97461 1.6934-0.55827 0.33041-0.91667 0.59147-1.0762 0.78516-0.15951 0.19368-0.24024 0.48372-0.24024 0.87109 0 0.74056 0.42253 1.3164 1.2656 1.7266 0.85449 0.39877 2.0498 0.59766 3.5879 0.59766 3.4066 0 5.1113-0.79134 5.1113-2.375 0-0.60384-0.38314-1.0928-1.1465-1.4688-0.54687-0.27343-0.91146-0.70214-1.0938-1.2832-0.17089-0.58106-0.25586-1.6624-0.25586-3.2461 0-1.9254 0.34798-2.8887 1.043-2.8887 0.46712 0 1.0534 0.31901 1.7598 0.95703l10.135 9.0742c0.59245 0.53548 1.013 0.87728 1.2637 1.0254 0.26204 0.14811 0.57064 0.22266 0.92383 0.22266 0.80892 0 1.3662-0.55306 1.6738-1.6582 0.25066-0.88867 0.37077-2.3346 0.35938-4.3398-0.0114-1.4811-0.0176-2.6494-0.0176-3.5039v-5.5703c0.0114-2.0964 0.1709-3.5215 0.47851-4.2734 0.0911-0.22786 0.20085-0.39778 0.32617-0.51171 0.12533-0.11394 0.35743-0.24642 0.69922-0.39454 0.8545-0.37597 1.2832-0.93326 1.2832-1.6738 0-0.88868-0.5241-1.4935-1.5723-1.8125-0.66081-0.20508-1.8519-0.30664-3.5723-0.30664-1.333 0-2.2673 0.056-2.8027 0.16992-1.3102 0.27343-1.9648 0.88867-1.9648 1.8457 0 0.38737 0.0911 0.70638 0.27343 0.95703 0.1823 0.23926 0.49512 0.46713 0.93946 0.6836 0.54687 0.26204 0.90527 0.6556 1.0762 1.1797 0.1709 0.5241 0.25586 1.5039 0.25586 2.9395 0 1.2646-0.29623 1.8965-0.88867 1.8965-0.3532 0-0.92709-0.34603-1.7246-1.041l-8.5117-7.4512c-0.56966-0.5013-1.0648-0.82031-1.4863-0.95703-0.41016-0.14811-1.071-0.22265-1.9824-0.22265zm29.053 0c-1.595 0-2.7116 0.0456-3.3496 0.13671-1.8799 0.28483-2.8203 0.97461-2.8203 2.0684 0 0.3418 0.0973 0.63184 0.29102 0.8711 0.20508 0.23926 0.56348 0.48373 1.0762 0.73437 0.44434 0.21648 0.76335 0.44434 0.95703 0.6836 0.19369 0.23925 0.35319 0.60383 0.47852 1.0938 0.34179 1.3444 0.51367 3.4863 0.51367 6.4258 0 2.7572-0.0973 4.8701-0.29102 6.3398-0.11393 0.80892-0.43913 1.3744-0.97461 1.6934-0.55827 0.33041-0.91667 0.59147-1.0762 0.78516-0.15951 0.19368-0.24023 0.48372-0.24023 0.87109 0 0.74056 0.42252 1.3164 1.2656 1.7266 0.85449 0.39877 2.0498 0.59766 3.5879 0.59766 3.4066 0 5.1113-0.79134 5.1113-2.375 0-0.60384-0.38314-1.0928-1.1465-1.4688-0.54688-0.27343-0.91147-0.70214-1.0938-1.2832-0.1709-0.58106-0.25586-1.6624-0.25586-3.2461 0-1.9254 0.34798-2.8887 1.043-2.8887 0.46712 0 1.0534 0.31901 1.7598 0.95703l10.135 9.0742c0.59244 0.53548 1.013 0.87728 1.2637 1.0254 0.26204 0.14811 0.57064 0.22266 0.92383 0.22266 0.80892 0 1.3662-0.55306 1.6738-1.6582 0.25066-0.88867 0.37078-2.3346 0.35938-4.3398-0.0114-1.4811-0.0176-2.6494-0.0176-3.5039v-5.5703c0.0114-2.0964 0.1709-3.5215 0.47852-4.2734 0.0911-0.22786 0.20084-0.39778 0.32617-0.51171 0.12532-0.11394 0.35742-0.24642 0.69922-0.39454 0.85449-0.37597 1.2832-0.93326 1.2832-1.6738 0-0.88868-0.52408-1.4935-1.5723-1.8125-0.66081-0.20508-1.8519-0.30664-3.5723-0.30664-1.333 0-2.2672 0.056-2.8027 0.16992-1.3102 0.27343-1.9648 0.88867-1.9648 1.8457 0 0.38737 0.0911 0.70638 0.27344 0.95703 0.18229 0.23926 0.49511 0.46713 0.93945 0.6836 0.54688 0.26204 0.90527 0.6556 1.0762 1.1797 0.1709 0.5241 0.25586 1.5039 0.25586 2.9395 0 1.2646-0.29622 1.8965-0.88867 1.8965-0.35319 0-0.92708-0.34603-1.7246-1.041l-8.5117-7.4512c-0.56966-0.5013-1.0648-0.82031-1.4863-0.95703-0.41015-0.14811-1.071-0.22265-1.9824-0.22265zm-45.887 0.23828c-0.63802 0-1.3506 0.0123-2.1367 0.0351-2.5065 0.0684-4.1865 0.10157-5.041 0.10157-1.1621 0-2.2435-0.0228-3.2461-0.0684-0.60384-0.0342-1.1009-0.0508-1.4883-0.0508-0.70638 0-1.2864 0.1595-1.7422 0.47851-0.44434 0.31901-0.66602 0.72917-0.66602 1.2305 0 0.61523 0.375 1.0833 1.127 1.4023 0.64942 0.28483 1.0596 0.64941 1.2305 1.0938 0.18229 0.43294 0.27344 1.3154 0.27344 2.6484 0 3.6344-0.10775 6.694-0.32422 9.1777-0.14811 1.5951-0.28483 2.637-0.41015 3.127-0.12533 0.47851-0.3532 0.83073-0.6836 1.0586-0.56966 0.38737-0.92806 0.67318-1.0762 0.85547-0.14811 0.18229-0.22266 0.43294-0.22266 0.75195 0 0.48991 0.1989 0.91049 0.59766 1.2637 0.41016 0.35319 0.96322 0.53125 1.6582 0.53125 0.28483 0 0.75716-0.029 1.418-0.0859 0.74056-0.0456 1.915-0.0807 3.5215-0.10352l2.2891-0.0156c0.3418 0.0114 1.2656 0.0446 2.7695 0.10156 1.652 0.0569 2.6878 0.0859 3.1094 0.0859 3.099 0 5.4398-0.89486 7.0234-2.6836 1.1963-1.3558 1.7949-2.8535 1.7949-4.4941 0-1.39-0.39355-2.5459-1.1797-3.4688-0.76335-0.88867-1.6107-1.5224-2.5449-1.8984-0.47852-0.19368-0.71875-0.43197-0.71875-0.7168 0-0.26205 0.19889-0.55209 0.59765-0.8711 0.55828-0.44433 1.0036-1.0368 1.334-1.7773 0.3304-0.75195 0.49609-1.5225 0.49609-2.3086 0-1.5837-0.55924-2.8473-1.6758-3.793-0.68359-0.58105-1.4915-0.99121-2.4258-1.2305-0.92285-0.25065-2.1429-0.37695-3.6582-0.37695zm-2.6836 3.3496c0.75195 0 1.334 0.29621 1.7441 0.88867 0.41015 0.58105 0.61524 1.4076 0.61524 2.4785 0 1.1052-0.1989 1.9193-0.59766 2.4434-0.39877 0.5127-1.0202 0.76953-1.8633 0.76953-0.35319 0-0.60384-0.11393-0.75195-0.34179-0.13673-0.22787-0.20508-0.62142-0.20508-1.1797v-3.5195c0-0.58105 0.0745-0.98079 0.22265-1.1973 0.15951-0.22786 0.43718-0.34179 0.83594-0.34179zm0.27344 9.8789c1.9368 0 2.9062 1.2637 2.9062 3.793 0 2.028-0.86589 3.043-2.5977 3.043-0.6608 0-1.0999-0.24447-1.3164-0.73437-0.21648-0.48991-0.32422-1.4821-0.32422-2.9746v-1.623c0-0.56966 0.0973-0.96322 0.29101-1.1797 0.19369-0.21647 0.53972-0.32422 1.041-0.32422z"/>
   <path id="path4580" style="fill:url(#linearGradient4588);fill-rule:evenodd" d="m171.11 289.33c-1.595 0-2.7116-0.0456-3.3496-0.13671-1.8799-0.28483-2.8203-0.97461-2.8203-2.0684 0-0.3418 0.0973-0.63184 0.29101-0.8711 0.20508-0.23926 0.56347-0.48373 1.0762-0.73437 0.44434-0.21648 0.76335-0.44434 0.95704-0.6836 0.19368-0.23925 0.35319-0.60383 0.47851-1.0938 0.3418-1.3444 0.51367-3.4863 0.51367-6.4258 0-2.7572-0.0973-4.8701-0.29101-6.3398-0.11394-0.80892-0.43913-1.3744-0.97461-1.6934-0.55827-0.33041-0.91667-0.59147-1.0762-0.78516-0.15951-0.19368-0.24024-0.48372-0.24024-0.87109 0-0.74056 0.42253-1.3164 1.2656-1.7266 0.85449-0.39877 2.0498-0.59766 3.5879-0.59766 3.4066 0 5.1113 0.79134 5.1113 2.375 0 0.60384-0.38314 1.0928-1.1465 1.4688-0.54687 0.27343-0.91146 0.70214-1.0938 1.2832-0.17089 0.58106-0.25586 1.6624-0.25586 3.2461 0 1.9254 0.34798 2.8887 1.043 2.8887 0.46712 0 1.0534-0.31901 1.7598-0.95703l10.135-9.0742c0.59245-0.53548 1.013-0.87728 1.2637-1.0254 0.26204-0.14811 0.57064-0.22266 0.92383-0.22266 0.80892 0 1.3662 0.55306 1.6738 1.6582 0.25066 0.88867 0.37077 2.3346 0.35938 4.3398-0.0114 1.4811-0.0176 2.6494-0.0176 3.5039v5.5703c0.0114 2.0964 0.1709 3.5215 0.47851 4.2734 0.0911 0.22786 0.20085 0.39778 0.32617 0.51171 0.12533 0.11394 0.35743 0.24642 0.69922 0.39454 0.8545 0.37597 1.2832 0.93326 1.2832 1.6738 0 0.88868-0.5241 1.4935-1.5723 1.8125-0.66081 0.20508-1.8519 0.30664-3.5723 0.30664-1.333 0-2.2673-0.056-2.8027-0.16992-1.3102-0.27343-1.9648-0.88867-1.9648-1.8457 0-0.38737 0.0911-0.70638 0.27343-0.95703 0.1823-0.23926 0.49512-0.46713 0.93946-0.6836 0.54687-0.26204 0.90527-0.6556 1.0762-1.1797 0.1709-0.5241 0.25586-1.5039 0.25586-2.9395 0-1.2646-0.29623-1.8965-0.88867-1.8965-0.3532 0-0.92709 0.34603-1.7246 1.041l-8.5117 7.4512c-0.56966 0.5013-1.0648 0.82031-1.4863 0.95703-0.41016 0.14811-1.071 0.22265-1.9824 0.22265zm29.053 0c-1.595 0-2.7116-0.0456-3.3496-0.13671-1.8799-0.28483-2.8203-0.97461-2.8203-2.0684 0-0.3418 0.0973-0.63184 0.29102-0.8711 0.20508-0.23926 0.56348-0.48373 1.0762-0.73437 0.44434-0.21648 0.76335-0.44434 0.95703-0.6836 0.19369-0.23925 0.35319-0.60383 0.47852-1.0938 0.34179-1.3444 0.51367-3.4863 0.51367-6.4258 0-2.7572-0.0973-4.8701-0.29102-6.3398-0.11393-0.80892-0.43913-1.3744-0.97461-1.6934-0.55827-0.33041-0.91667-0.59147-1.0762-0.78516-0.15951-0.19368-0.24023-0.48372-0.24023-0.87109 0-0.74056 0.42252-1.3164 1.2656-1.7266 0.85449-0.39877 2.0498-0.59766 3.5879-0.59766 3.4066 0 5.1113 0.79134 5.1113 2.375 0 0.60384-0.38314 1.0928-1.1465 1.4688-0.54688 0.27343-0.91147 0.70214-1.0938 1.2832-0.1709 0.58106-0.25586 1.6624-0.25586 3.2461 0 1.9254 0.34798 2.8887 1.043 2.8887 0.46712 0 1.0534-0.31901 1.7598-0.95703l10.135-9.0742c0.59244-0.53548 1.013-0.87728 1.2637-1.0254 0.26204-0.14811 0.57064-0.22266 0.92383-0.22266 0.80892 0 1.3662 0.55306 1.6738 1.6582 0.25066 0.88867 0.37078 2.3346 0.35938 4.3398-0.0114 1.4811-0.0176 2.6494-0.0176 3.5039v5.5703c0.0114 2.0964 0.1709 3.5215 0.47852 4.2734 0.0911 0.22786 0.20084 0.39778 0.32617 0.51171 0.12532 0.11394 0.35742 0.24642 0.69922 0.39454 0.85449 0.37597 1.2832 0.93326 1.2832 1.6738 0 0.88868-0.52408 1.4935-1.5723 1.8125-0.66081 0.20508-1.8519 0.30664-3.5723 0.30664-1.333 0-2.2672-0.056-2.8027-0.16992-1.3102-0.27343-1.9648-0.88867-1.9648-1.8457 0-0.38737 0.0911-0.70638 0.27344-0.95703 0.18229-0.23926 0.49511-0.46713 0.93945-0.6836 0.54688-0.26204 0.90527-0.6556 1.0762-1.1797 0.1709-0.5241 0.25586-1.5039 0.25586-2.9395 0-1.2646-0.29622-1.8965-0.88867-1.8965-0.35319 0-0.92708 0.34603-1.7246 1.041l-8.5117 7.4512c-0.56966 0.5013-1.0648 0.82031-1.4863 0.95703-0.41015 0.14811-1.071 0.22265-1.9824 0.22265zm-45.887-0.23828c-0.63802 0-1.3506-0.0124-2.1367-0.0352-2.5065-0.0684-4.1865-0.10157-5.041-0.10157-1.1621 0-2.2435 0.0228-3.2461 0.0684-0.60384 0.0342-1.1009 0.0508-1.4883 0.0508-0.70638 0-1.2864-0.1595-1.7422-0.47851-0.44434-0.31901-0.66602-0.72917-0.66602-1.2305 0-0.61523 0.375-1.0833 1.127-1.4023 0.64942-0.28483 1.0596-0.64941 1.2305-1.0938 0.18229-0.43294 0.27344-1.3154 0.27344-2.6484 0-3.6344-0.10775-6.694-0.32422-9.1777-0.14811-1.5951-0.28483-2.637-0.41015-3.127-0.12533-0.47851-0.3532-0.83073-0.6836-1.0586-0.56966-0.38737-0.92806-0.67318-1.0762-0.85547-0.14811-0.18229-0.22266-0.43294-0.22266-0.75195 0-0.48991 0.1989-0.91049 0.59766-1.2637 0.41016-0.35319 0.96322-0.53125 1.6582-0.53125 0.28483 0 0.75716 0.029 1.418 0.0859 0.74056 0.0456 1.915 0.0807 3.5215 0.10352l2.2891 0.0156c0.3418-0.0114 1.2656-0.0446 2.7695-0.10156 1.652-0.0569 2.6878-0.0859 3.1094-0.0859 3.099 0 5.4398 0.89486 7.0234 2.6836 1.1963 1.3558 1.7949 2.8535 1.7949 4.4941 0 1.39-0.39355 2.5459-1.1797 3.4688-0.76335 0.88867-1.6107 1.5224-2.5449 1.8984-0.47852 0.19368-0.71875 0.43197-0.71875 0.7168 0 0.26205 0.19889 0.55209 0.59765 0.8711 0.55828 0.44433 1.0036 1.0368 1.334 1.7773 0.3304 0.75195 0.49609 1.5225 0.49609 2.3086 0 1.5837-0.55924 2.8473-1.6758 3.793-0.68359 0.58105-1.4915 0.99121-2.4258 1.2305-0.92285 0.25065-2.1429 0.37695-3.6582 0.37695zm-2.6836-3.3496c0.75195 0 1.334-0.29621 1.7441-0.88867 0.41015-0.58105 0.61524-1.4076 0.61524-2.4785 0-1.1052-0.1989-1.9193-0.59766-2.4434-0.39877-0.5127-1.0202-0.76953-1.8633-0.76953-0.35319 0-0.60384 0.11393-0.75195 0.34179-0.13673 0.22787-0.20508 0.62142-0.20508 1.1797v3.5195c0 0.58105 0.0745 0.98079 0.22265 1.1973 0.15951 0.22786 0.43718 0.34179 0.83594 0.34179zm0.27344-9.8789c1.9368 0 2.9062-1.2637 2.9062-3.793 0-2.028-0.86589-3.043-2.5977-3.043-0.6608 0-1.0999 0.24447-1.3164 0.73437-0.21648 0.48991-0.32422 1.4821-0.32422 2.9746v1.623c0 0.56966 0.0973 0.96322 0.29101 1.1797 0.19369 0.21647 0.53972 0.32422 1.041 0.32422z"/>
  </g>
 </g>
</svg>
